<svg width="198" height="25" viewBox="0 0 198 25" fill="none" xmlns="http://www.w3.org/2000/svg">
<path d="M13 24.7467C4.65333 24.72 0.973333 22.32 1.26667 16.1333H9.13333C9.13333 17.2533 10.12 17.92 13 17.9467C15.4 18 16.3067 17.44 16.3067 16.88C16.3067 16.72 16.4933 15.9733 14.6267 15.76L11.6667 15.3067C7.42667 14.6667 1.74667 14.56 1.74667 8.26667C1.74667 3.70667 5.37333 0.853333 13.0533 0.853333C19.88 0.853333 24.6267 2.45333 24.3867 9.41333H16.5733C16.36 8.29333 15.32 7.62667 12.8667 7.62667C10.7867 7.62667 10.1733 8.18667 10.1733 8.72C10.1733 8.88 10.12 9.6 11.4267 9.76L13.7733 10.1333C18.3333 10.88 25.0267 10.6133 25.0267 17.2533C25.0267 22.4267 21.1333 24.8 13 24.7467ZM51.9617 24H43.0817L37.935 16.8533H37.455L34.9217 19.6V24H26.175V1.6H34.9217V9.22667H35.455L42.1217 1.6H51.8017L42.8417 11.5733L51.9617 24ZM52.425 24V1.6H61.1983V24H52.425ZM62.8 24V1.6H72.8267L78.2933 11.7333H79.0667V1.6H87.6V24H77.8133L72.1333 13.8667H71.3333V24H62.8ZM101.42 24.7467C94.1663 24.7467 89.1529 19.84 89.1529 12.8C89.1529 5.76 94.1663 0.853333 101.42 0.853333C106.326 0.853333 111.366 3.04 112.46 9.62667H107.366C106.406 6.74667 104.193 5.46667 101.42 5.46667C97.4462 5.46667 94.4062 8.48 94.4062 12.8C94.4062 17.0933 97.4462 20.1333 101.42 20.1333C104.193 20.1333 106.406 18.8533 107.366 15.9467H112.46C111.366 22.56 106.38 24.7467 101.42 24.7467ZM114.365 24V1.6H119.672V19.5467H132.579V24H114.365ZM134.647 24V1.6H139.953V24H134.647ZM142.24 24V1.6H148.4L158.8 16.6667H159.307V1.6H164.507V24H158.454L147.92 8.93333H147.44V24H142.24ZM166.772 24V1.6H172.078V24H166.772ZM186.232 24.7467C178.979 24.7467 173.965 19.84 173.965 12.8C173.965 5.76 178.979 0.853333 186.232 0.853333C191.139 0.853333 196.179 3.04 197.272 9.62667H192.179C191.219 6.74667 189.005 5.46667 186.232 5.46667C182.259 5.46667 179.219 8.48 179.219 12.8C179.219 17.0933 182.259 20.1333 186.232 20.1333C189.005 20.1333 191.219 18.8533 192.179 15.9467H197.272C196.179 22.56 191.192 24.7467 186.232 24.7467Z" fill="black"/>
</svg>
